# xmcd
#
# Track frame offsets:
#	150
#	15450
#	28544
#	40372
#	53084
#	66119
#	80130
#	94689
#	106717
#	125007
#	138318
#	155019
#	174008
#	191586
#	213439
#	240151
#	256830
#	276669
#	293579
#	312360
#
# Disc length: 4391 seconds
#
# Revision: 0
# Processed by: cddbd v1.5.1PL2 Copyright (c) Steve Scherf et al.
# Submitted via: MusicWizard 7.2.0
#
DISCID=11112514
DTITLE=Stevie Wonder - The Very Best Of Stevie Wonder [CD 1/2)
DYEAR=2002
DGENRE=Blues
TTITLE0=Isn't She Lovely
TTITLE1=Uptight (Everythings Alright)
TTITLE2=I Was Made To Love Her
TTITLE3=For Once In My Life
TTITLE4=My Cherie Amour
TTITLE5=Yester Me Yester You Yesterday
TTITLE6=Never Had A Dream Come True
TTITLE7=Signed Sealed Delivered Im You
TTITLE8=Superstition
TTITLE9=You Are The Sunshine Of My Life
TTITLE10=Living For The City
TTITLE11=I Wish
TTITLE12=Sir Duke
TTITLE13=Master Blaster (Jammin)
TTITLE14=Happy Birthday
TTITLE15=Ebony And Ivory
TTITLE16=I Just Called To Say I Love Yo
TTITLE17=Part Time Lover
TTITLE18=Kiss Lonely Good Bye
TTITLE19=Redemption Song
EXTD=
EXTT0=
EXTT1=
EXTT2=
EXTT3=
EXTT4=
EXTT5=
EXTT6=
EXTT7=
EXTT8=
EXTT9=
EXTT10=
EXTT11=
EXTT12=
EXTT13=
EXTT14=
EXTT15=
EXTT16=
EXTT17=
EXTT18=
EXTT19=
PLAYORDER=
